Coordinates
version=1
nRows=21
nColumns=34
inDegrees=no

Units are S.I. units (second, meters, Newtons, ...)
If the header above contains a line with 'inDegrees', this indicates whether rotational values are in degrees (yes) or radians (no).

endheader
time	pelvis_tilt	pelvis_list	pelvis_rotation	pelvis_tx	pelvis_ty	pelvis_tz	hip_flexion_r	hip_adduction_r	hip_rotation_r	knee_angle_r	ankle_angle_r	subtalar_angle_r	mtp_angle_r	hip_flexion_l	hip_adduction_l	hip_rotation_l	knee_angle_l	ankle_angle_l	subtalar_angle_l	mtp_angle_l	lumbar_extension	lumbar_bending	lumbar_rotation	arm_flex_r	arm_add_r	arm_rot_r	elbow_flex_r	pro_sup_r	arm_flex_l	arm_add_l	arm_rot_l	elbow_flex_l	pro_sup_l
0.38	-0.00970707	-0.155443	0.0483345	0.249988	0.922268	-0.253162	0.0340629	0.221892	0.0142984	0.108615	0.191825	-0.129982	0.00739851	0.618643	-0.208718	-0.00111384	1.02884	0.168603	-0.0972273	0.00738556	-0.272988	0.270449	0.123119	0.241082	-0.344121	0.0862042	0.759039	2.05717	0.0329249	-0.265646	-0.247099	0.740096	2.10901
0.39	-0.00976853	-0.156538	0.0398373	0.260082	0.922004	-0.25285	0.00990011	0.22445	0.038419	0.0902854	0.189447	-0.137175	0.00740347	0.62753	-0.209387	-0.00586443	0.979567	0.176159	-0.0883092	0.00739058	-0.275195	0.269737	0.127873	0.254125	-0.343522	0.0961666	0.765391	2.0578	0.0371123	-0.265692	-0.252659	0.741354	2.11142
0.4	-0.00967685	-0.157895	0.0320127	0.270229	0.921574	-0.252594	-0.0144948	0.226736	0.0635158	0.0723776	0.185654	-0.147003	0.00740842	0.634002	-0.209913	-0.00975497	0.926609	0.183307	-0.0765566	0.00739559	-0.277351	0.269279	0.131386	0.266793	-0.342408	0.105802	0.771339	2.05949	0.0409025	-0.265524	-0.258263	0.741769	2.11448
0.41	-0.00948601	-0.15943	0.0247169	0.280424	0.920988	-0.252386	-0.0386602	0.22868	0.0887155	0.0556851	0.181172	-0.158366	0.00741337	0.637997	-0.210203	-0.0127483	0.870052	0.19	-0.0612003	0.00740061	-0.279483	0.268942	0.133763	0.278979	-0.340791	0.115056	0.776984	2.06193	0.0442223	-0.26515	-0.263844	0.741383	2.11766
0.42	-0.00929082	-0.161097	0.0177322	0.290658	0.920252	-0.252212	-0.0620104	0.230255	0.112877	0.0410449	0.176946	-0.169696	0.00741832	0.639524	-0.210279	-0.0148051	0.810071	0.196204	-0.0417088	0.00740562	-0.281604	0.268625	0.135206	0.290589	-0.338705	0.123884	0.782424	2.06479	0.0470255	-0.264564	-0.269311	0.740246	2.1205
0.43	-0.00919336	-0.162876	0.0107942	0.300922	0.919378	-0.252057	-0.0839483	0.231473	0.134818	0.0291547	0.173973	-0.179258	0.00742328	0.63865	-0.21027	-0.0158739	0.746951	0.201919	-0.0178719	0.00741064	-0.283715	0.268258	0.135975	0.30155	-0.336201	0.132262	0.787732	2.06777	0.0492923	-0.263757	-0.274559	0.738423	2.12268
0.44	-0.00927888	-0.16477	0.00363029	0.311205	0.918377	-0.251903	-0.104019	0.232375	0.153636	0.0203779	0.173073	-0.185584	0.00742823	0.635464	-0.210374	-0.0159001	0.681102	0.207186	0.0101364	0.00741565	-0.285832	0.267783	0.136353	0.311814	-0.33334	0.140196	0.792947	2.0706	0.0510269	-0.262724	-0.279464	0.736005	2.12404
0.45	-0.00959751	-0.166787	-0.00400168	0.321507	0.917264	-0.251735	-0.122035	0.23301	0.168936	0.0146367	0.174717	-0.187802	0.00743318	0.630059	-0.210816	-0.0148429	0.613079	0.212076	0.041705	0.00742067	-0.287985	0.267149	0.136603	0.321349	-0.330186	0.147721	0.798073	2.07314	0.0522535	-0.261475	-0.283903	0.733101	2.12452
0.46	-0.0101675	-0.168932	-0.0122848	0.331838	0.916054	-0.251537	-0.13812	0.233418	0.180875	0.0114728	0.178973	-0.185729	0.00743813	0.622547	-0.211809	-0.0126907	0.543613	0.216659	0.075738	0.00742568	-0.290205	0.266305	0.13694	0.330126	-0.326805	0.154898	0.803089	2.0753	0.0530115	-0.260033	-0.287752	0.729828	2.12415
0.47	-0.0109662	-0.171199	-0.0213263	0.342221	0.914763	-0.2513	-0.152696	0.233623	0.190067	0.0101841	0.185544	-0.17979	0.00744308	0.613079	-0.213517	-0.00949192	0.473627	0.220973	0.110673	0.00743069	-0.292501	0.265206	0.137507	0.338102	-0.323265	0.161796	0.807966	2.0771	0.053352	-0.258434	-0.290906	0.726292	2.12304
0.48	-0.0119287	-0.173583	-0.0311465	0.352689	0.913406	-0.251018	-0.166405	0.233617	0.197409	0.0099833	0.19387	-0.170835	0.00744804	0.60184	-0.216028	-0.00539586	0.404248	0.22501	0.144588	0.00743571	-0.294874	0.263795	0.138369	0.345217	-0.319632	0.168489	0.812683	2.07862	0.0533363	-0.256718	-0.293292	0.722576	2.12132
0.49	-0.0129518	-0.176062	-0.0416841	0.363278	0.912001	-0.250693	-0.179958	0.233365	0.203831	0.0101441	0.203286	-0.159883	0.00745299	0.589033	-0.219346	-0.000692355	0.336801	0.228713	0.175396	0.00744072	-0.297355	0.262011	0.139519	0.351394	-0.315973	0.175032	0.817239	2.07996	0.0530385	-0.254928	-0.294888	0.718728	2.11916
0.5	-0.0138782	-0.178591	-0.0528115	0.374015	0.910569	-0.250329	-0.193997	0.2328	0.210051	0.0101166	0.213173	-0.147832	0.00745794	0.574883	-0.223383	0.00416959	0.272777	0.232004	0.201102	0.00744573	-0.300014	0.259777	0.140889	0.356541	-0.312348	0.181454	0.821665	2.08127	0.052544	-0.2531	-0.295732	0.714758	2.11674
0.51	-0.0145143	-0.181104	-0.0643478	0.384923	0.909134	-0.249936	-0.208985	0.231827	0.216352	0.00961417	0.223099	-0.135176	0.00746289	0.559654	-0.227967	0.00860469	0.213754	0.234796	0.220078	0.00745074	-0.302943	0.257007	0.142357	0.36056	-0.308813	0.187749	0.826026	2.08268	0.0519463	-0.25126	-0.295931	0.710644	2.11431
0.52	-0.0146634	-0.183515	-0.0760748	0.396009	0.907719	-0.249526	-0.225119	0.230325	0.222409	0.00866942	0.232918	-0.121784	0.00746784	0.543663	-0.232849	0.0119596	0.161283	0.236999	0.231296	0.00745575	-0.306238	0.253602	0.143761	0.363349	-0.305415	0.193868	0.830422	2.08431	0.0513397	-0.249422	-0.295657	0.706345	2.11213
0.53	-0.014163	-0.185716	-0.0877555	0.407269	0.906349	-0.249114	-0.242275	0.228146	0.2272	0.00765931	0.24281	-0.10678	0.00747279	0.527279	-0.237723	0.0136161	0.116732	0.238501	0.234471	0.00746077	-0.309968	0.249461	0.144906	0.364812	-0.302195	0.19973	0.834967	2.08624	0.0508123	-0.247582	-0.295143	0.701816	2.11051
0.54	-0.0129154	-0.18758	-0.0991542	0.418684	0.905039	-0.248723	-0.259987	0.225114	0.229033	0.00729236	0.253266	-0.0885615	0.00747773	0.510907	-0.242244	0.013108	0.0811118	0.239117	0.230081	0.00746578	-0.314149	0.244474	0.14558	0.364868	-0.299183	0.205234	0.83978	2.08848	0.0504394	-0.245724	-0.294657	0.697024	2.10976
0.55	-0.0109068	-0.188952	-0.110053	0.430225	0.903802	-0.248376	-0.277492	0.221022	0.225716	0.00854787	0.264985	-0.0650087	0.00748268	0.494945	-0.246044	0.0102246	0.0549252	0.238532	0.219268	0.00747079	-0.318742	0.23852	0.14556	0.363463	-0.2964	0.210281	0.844958	2.09097	0.0502771	-0.24382	-0.294477	0.691967	2.11015
0.56	-0.00820606	-0.189649	-0.12026	0.441862	0.902636	-0.248101	-0.293842	0.215628	0.214902	0.0125553	0.278699	-0.0338832	0.00748763	0.479735	-0.248748	0.00507171	0.0380769	0.236266	0.203615	0.00747579	-0.323655	0.231455	0.144623	0.360572	-0.293855	0.214797	0.850558	2.09358	0.0503601	-0.241845	-0.294852	0.686679	2.11188
0.57	-0.00491909	-0.189452	-0.129613	0.453563	0.901573	-0.247931	-0.308093	0.208655	0.194576	0.020407	0.294939	0.00659695	0.00749258	0.465528	-0.249976	-0.00192385	0.0298768	0.231678	0.184881	0.0074808	-0.328751	0.223102	0.142542	0.356204	-0.291535	0.218737	0.856573	2.09609	0.0507012	-0.239784	-0.295964	0.681241	2.11493
0.58	-0.00117142	-0.188102	-0.137965	0.46531	0.900618	-0.247885	-0.319565	0.199795	0.163645	0.0329212	0.313771	0.0570972	0.00749752	0.452465	-0.249338	-0.0100665	0.0291446	0.22404	0.164708	0.00748581	-0.333882	0.213238	0.13908	0.350394	-0.2894	0.222092	0.862921	2.09825	0.0512969	-0.237652	-0.297888	0.675773	2.11908
